<?xml version="1.0" standalone="no"?>
<!DOCTYPE svg PUBLIC "-//W3C//DTD SVG 20010904//EN"
 "http://www.w3.org/TR/2001/REC-SVG-20010904/DTD/svg10.dtd">
<svg version="1.0" xmlns="http://www.w3.org/2000/svg"
 width="881.000000pt" height="552.000000pt" viewBox="0 0 881.000000 552.000000"
 preserveAspectRatio="xMidYMid meet">
<metadata>
Created by potrace 1.15, written by Peter Selinger 2001-2017
</metadata>
<g transform="translate(0.000000,552.000000) scale(0.100000,-0.100000)"
fill="#000000" stroke="none">
<path d="M2788 4830 c-29 -18 -22 -77 15 -142 27 -48 49 -69 142 -134 140 -97
449 -360 832 -707 22 -20 23 -20 103 -1 44 10 80 23 80 27 0 9 -445 555 -531
652 -170 191 -365 303 -539 312 -51 2 -92 -1 -102 -7z"/>
<path d="M1734 4780 c-183 -20 -186 -78 -14 -251 164 -165 337 -279 680 -448
195 -97 335 -160 915 -416 375 -166 623 -290 769 -384 138 -90 190 -106 234
-75 27 19 29 63 5 93 -15 18 -30 22 -89 24 -84 2 -24 -43 -504 387 -611 548
-740 658 -920 777 -191 128 -367 211 -532 252 -139 34 -418 55 -544 41z"/>
<path d="M4100 3754 c-58 -8 -123 -19 -145 -25 -39 -11 -39 -11 -19 -28 11 -9
79 -69 150 -133 124 -111 133 -117 165 -112 82 14 174 -41 205 -121 39 -103 0
-215 -90 -256 -93 -42 -189 -18 -353 91 -119 78 -527 285 -543 275 -19 -12
-71 -126 -93 -204 -28 -103 -31 -411 -3 -540 59 -284 278 -481 588 -531 98
-16 299 -8 388 15 143 38 277 131 350 245 l31 49 -42 61 c-54 80 -94 175 -115
280 -34 168 3 472 82 674 20 50 36 100 37 111 3 29 -109 100 -208 131 -101 33
-239 39 -385 18z"/>
<path d="M5000 3711 c-145 -44 -237 -217 -290 -546 -35 -213 -22 -336 51 -485
55 -110 153 -211 254 -261 63 -31 77 -34 155 -33 68 0 98 6 153 28 l67 28 105
-56 c57 -31 109 -56 115 -56 15 0 100 70 100 81 0 5 -18 33 -41 61 -75 96 -87
138 -105 398 l-6 95 50 47 c28 26 63 50 78 54 36 9 144 -26 390 -127 105 -44
200 -79 211 -79 27 0 45 23 41 52 -4 28 -48 51 -288 147 -314 125 -354 131
-450 66 l-52 -35 7 33 c9 41 60 166 81 195 22 32 82 30 408 -14 118 -16 118
-16 139 5 20 20 21 23 7 49 -15 26 -22 28 -180 49 -91 13 -215 24 -277 25
l-112 3 -35 -34 c-19 -18 -45 -53 -57 -76 l-23 -43 -42 88 c-90 189 -193 295
-324 334 -57 17 -90 19 -130 7z m137 -471 c60 -27 139 -110 170 -176 60 -132
-4 -344 -104 -344 -39 0 -80 27 -122 80 -87 110 -141 239 -141 336 0 50 3 59
34 90 28 28 41 34 78 34 23 0 62 -9 85 -20z"/>
<path d="M5053 3125 c-36 -15 -53 -41 -53 -80 0 -40 17 -63 68 -96 53 -34 87
-37 102 -10 24 46 4 149 -37 181 -30 23 -37 24 -80 5z"/>
<path d="M2984 3390 c-39 -4 -85 -11 -102 -15 l-32 -7 0 -121 c0 -147 19 -279
65 -452 66 -252 154 -471 228 -567 20 -27 35 -48 32 -48 -2 0 -24 7 -47 17
-214 83 -458 389 -538 673 -27 97 -50 239 -51 315 -1 102 4 100 -143 43 l-129
-50 7 -96 c14 -196 62 -360 171 -579 88 -179 176 -315 259 -401 66 -70 63 -72
-42 -26 -191 84 -384 275 -494 490 -77 149 -138 353 -138 460 0 19 -3 34 -8
34 -23 0 -253 -150 -281 -184 -17 -20 -4 -95 41 -236 101 -317 272 -517 577
-672 l96 -49 -55 6 c-267 31 -492 145 -619 311 -67 88 -155 267 -182 369 -12
44 -24 87 -26 95 -10 34 -155 -164 -223 -306 -22 -45 -50 -119 -64 -165 l-24
-84 -250 -5 c-284 -6 -287 -6 -329 -90 -21 -41 -23 -58 -23 -212 l0 -168 150
0 150 0 0 86 0 86 273 -6 c149 -3 351 -9 447 -12 301 -11 649 29 901 101 211
61 509 176 777 301 l101 47 -45 50 c-101 113 -166 272 -185 457 -16 156 -7
382 21 485 29 112 30 108 -9 116 -61 13 -184 17 -257 9z"/>
<path d="M4790 2332 c0 -4 -23 -34 -51 -65 l-51 -57 123 -168 c67 -92 132
-175 143 -185 28 -23 71 -18 208 26 l107 35 36 -59 c34 -55 79 -98 90 -87 3 3
-4 72 -15 154 -27 208 -32 211 -225 143 -65 -23 -120 -37 -124 -32 -4 4 -56
74 -116 156 -100 134 -125 162 -125 139z"/>
<path d="M3545 2178 c-34 -103 -215 -771 -215 -793 0 -16 36 -196 79 -400 l78
-370 -25 -33 c-26 -34 -40 -109 -26 -134 8 -13 34 -4 158 52 161 72 196 99
196 153 0 18 -31 187 -69 377 l-69 344 97 332 c53 183 97 331 99 330 1 -2 11
-122 22 -267 11 -145 23 -278 25 -294 3 -17 65 -123 138 -235 127 -197 132
-207 124 -241 -9 -38 12 -109 31 -109 11 0 112 132 136 177 32 63 24 84 -100
276 l-115 179 -20 236 c-10 131 -19 245 -19 255 0 14 -9 17 -47 17 -60 0 -168
23 -241 50 -63 24 -192 87 -206 101 -14 13 -26 11 -31 -3z"/>
<path d="M4507 2073 c-8 -16 -65 -146 -127 -290 l-113 -263 94 -155 c52 -85
96 -155 99 -155 3 0 28 43 55 95 28 52 51 91 52 87 1 -4 14 -162 28 -352 14
-190 28 -361 31 -380 10 -60 35 -100 75 -120 37 -19 64 -20 741 -20 l704 0 44
22 c76 39 84 65 88 266 l4 172 -171 0 -171 0 0 -65 0 -65 -200 0 c-110 0 -200
3 -200 6 0 3 13 23 28 43 16 20 160 224 322 454 l293 417 93 0 93 0 3 -567 c3
-549 4 -569 23 -603 12 -21 39 -44 65 -58 45 -22 46 -23 452 -20 393 3 407 4
434 24 66 49 69 59 72 255 l3 179 -170 0 -171 0 0 -65 0 -65 -170 0 -170 0 0
150 0 150 175 0 175 0 0 165 0 165 -175 0 -175 0 0 145 0 145 170 0 170 0 0
-70 0 -70 170 0 169 0 3 68 3 67 78 3 77 3 0 -626 0 -625 185 0 185 0 0 625 0
625 75 0 75 0 0 -70 0 -70 171 0 171 0 -4 184 c-3 206 -7 219 -79 261 -34 20
-54 20 -1448 23 l-1414 2 7 -142 c10 -206 -3 -187 131 -190 l112 -3 -332 -470
-332 -470 -60 -3 -60 -3 -6 58 c-4 32 -21 235 -38 452 l-31 394 -142 189 -141
188 -42 0 c-36 0 -45 -4 -56 -27z"/>
<path d="M3048 1950 l-188 -75 0 -401 c0 -440 -3 -467 -59 -535 -47 -57 -111
-83 -206 -83 -44 -1 -97 5 -118 13 -50 17 -103 64 -130 115 -21 40 -22 53 -25
395 l-3 353 -35 -5 c-20 -3 -91 -11 -157 -17 -67 -6 -137 -14 -154 -16 l-33
-5 0 -327 c0 -367 6 -417 65 -540 43 -91 150 -202 240 -249 135 -71 313 -97
474 -69 110 19 172 43 263 103 80 52 135 114 182 203 71 135 70 127 74 625 2
248 2 482 0 520 l-3 70 -187 -75z"/>
<path d="M995 1240 l-330 -470 -3 -125 -3 -126 583 3 c563 3 584 4 616 23 18
11 43 36 55 55 20 32 22 51 25 218 l4 182 -176 0 -176 0 0 -70 0 -70 -212 0
c-200 0 -210 1 -196 18 17 19 568 801 568 806 0 2 -71 6 -157 9 -87 4 -183 9
-213 12 l-55 6 -330 -471z"/>
</g>
</svg>
